<?xml version="1.0" standalone="no"?>
<!DOCTYPE svg PUBLIC "-//W3C//DTD SVG 1.1//EN" "http://www.w3.org/Graphics/SVG/1.1/DTD/svg11.dtd">
<svg t="1695202843431" class="icon" viewBox="0 0 1024 1024" version="1.1" xmlns="http://www.w3.org/2000/svg" p-id="4377" width="200" height="200"><path d="M936.2 315.8H787.7V40.1c0-11.7-9.5-21.2-21.2-21.2h-509c-11.7 0-21.2 9.5-21.2 21.2v275.7H87.8c-11.7 0-21.2 9.5-21.2 21.2v646.9c0 11.7 9.5 21.2 21.2 21.2h848.4c11.7 0 21.2-9.5 21.2-21.2V337c0-11.7-9.5-21.2-21.2-21.2zM549.1 644.3V793c0 11.7-9.5 21.2-21.2 21.2h-31.8c-11.7 0-21.2-9.5-21.2-21.2V644.3c-19.1-12.3-31.8-33.6-31.8-58 0-38.1 30.9-68.9 68.9-68.9s68.9 30.9 68.9 68.9c0 24.3-12.7 45.7-31.8 58z m124.8-362.9H350.1V128.1c0-9.4 7.6-17 17-17h289.6c9.4 0 17 7.6 17 17v153.3z" p-id="4378"></path></svg>